<svg viewBox="0 0 418 418" fill="none" xmlns="http://www.w3.org/2000/svg">
  <rect width="418" height="418" fill="#05080F"/>
  <g transform="translate(104, 0)">
    <path d="M88.451 204.138L72.3785 220.217L30.6156 178.454C-10.2052 137.635 -10.2052 71.4326 30.6156 30.614C71.4299 -10.2047 137.634 -10.2047 178.449 30.614C219.27 71.4326 219.27 137.635 178.449 178.454L104.532 252.372L96.2265 260.68L62.7693 294.135C39.6947 317.208 39.6947 354.593 62.7693 377.663C85.8394 400.733 123.225 400.733 146.295 377.663C169.37 354.593 169.37 317.208 146.295 294.135L136.686 284.528L120.613 268.451L136.686 252.372L162.374 278.058C194.315 310.004 194.315 361.797 162.374 393.74C130.429 425.686 78.6357 425.686 46.6902 393.74C14.7491 361.797 14.7491 310.004 46.6902 278.058L88.451 236.296L104.532 220.217L137.886 186.86L162.374 162.375C194.315 130.429 194.315 78.6363 162.374 46.693C130.429 14.7475 78.6357 14.7475 46.6902 46.693C14.7491 78.6363 14.7491 130.429 46.6902 162.375L88.451 204.138L72.3785 188.061L88.451 171.982L88.4291 171.958L104.532 155.855L119.187 141.197L130.192 130.195C144.376 116.013 144.376 93.0546 130.192 78.8729C116.008 64.6912 93.0562 64.6912 78.8724 78.8729C64.6885 93.0546 64.6885 116.013 78.8724 130.195L88.451 139.776L72.3501 155.879L62.7693 146.298C39.6947 123.228 39.6947 85.84 62.7693 62.7698C85.8394 39.6996 123.225 39.6996 146.295 62.7698C169.37 85.84 169.37 123.228 146.295 146.298L104.532 188.061L88.451 204.138Z" fill="url(#ipt_grad)"/>
    <circle cx="104.319" cy="104.882" r="17.387" fill="#FF7300"/>
  </g>
  <defs>
    <linearGradient id="ipt_grad" x1="208.532" y1="417.699" x2="208.532" y2="0" gradientUnits="userSpaceOnUse">
      <stop stop-color="#08462F"/>
      <stop offset="1" stop-color="#088356"/>
    </linearGradient>
  </defs>
</svg>
